<?xml version="1.0" encoding="UTF-8" standalone="no"?>
<svg
   xmlns:dc="http://purl.org/dc/elements/1.1/"
   xmlns:cc="http://creativecommons.org/ns#"
   xmlns:rdf="http://www.w3.org/1999/02/22-rdf-syntax-ns#"
   xmlns:svg="http://www.w3.org/2000/svg"
   xmlns="http://www.w3.org/2000/svg"
   xmlns:sodipodi="http://sodipodi.sourceforge.net/DTD/sodipodi-0.dtd"
   xmlns:inkscape="http://www.inkscape.org/namespaces/inkscape"
  
   viewBox="0 -25 424 424"

   version="1.1"
   id="svg1674"
   sodipodi:docname="code.svg"
   inkscape:version="0.92.4 (5da689c313, 2019-01-14)">
  <metadata
     id="metadata1680">
    <rdf:RDF>
      <cc:Work
         rdf:about="">
        <dc:format>image/svg+xml</dc:format>
        <dc:type
           rdf:resource="http://purl.org/dc/dcmitype/StillImage" />
      </cc:Work>
    </rdf:RDF>
  </metadata>
  <defs
     id="defs1678" />
  <sodipodi:namedview
     pagecolor="#ffffff"
     bordercolor="#666666"
     borderopacity="1"
     objecttolerance="10"
     gridtolerance="10"
     guidetolerance="10"
     inkscape:pageopacity="0"
     inkscape:pageshadow="2"
     inkscape:window-width="1920"
     inkscape:window-height="986"
     id="namedview1676"
     showgrid="false"
     inkscape:zoom="1.1807349"
     inkscape:cx="282.66667"
     inkscape:cy="282.66667"
     inkscape:window-x="-11"
     inkscape:window-y="-11"
     inkscape:window-maximized="1"
     inkscape:current-layer="svg1674" />
  <path
     d="m167.289062 272.132812c-1.601562 0-3.214843-.550781-4.53125-1.671874l-45.296874-38.570313c-1.5625-1.332031-2.460938-3.277344-2.460938-5.332031 0-2.050782.902344-3.996094 2.460938-5.328125l45.296874-38.570313c2.941407-2.507812 7.359376-2.152344 9.867188.789063 2.503906 2.945312 2.152344 7.363281-.792969 9.867187l-39.035156 33.242188 39.035156 33.242187c2.945313 2.507813 3.296875 6.925781.792969 9.867188-1.386719 1.628906-3.355469 2.464843-5.335938 2.464843zm0 0"
     id="path1658" />
  <path
     d="m256.710938 272.132812c-1.980469 0-3.949219-.835937-5.332032-2.464843-2.507812-2.941407-2.152344-7.359375.789063-9.867188l39.035156-33.242187-39.035156-33.242188c-2.941407-2.503906-3.296875-6.921875-.789063-9.867187 2.503906-2.941407 6.925782-3.296875 9.863282-.789063l45.296874 38.570313c1.5625 1.332031 2.460938 3.277343 2.460938 5.328125 0 2.054687-.898438 4-2.460938 5.332031l-45.296874 38.570313c-1.316407 1.121093-2.929688 1.671874-4.53125 1.671874zm0 0"
     id="path1660" />
  <path
     d="m195.964844 301.0625c-.480469 0-.964844-.050781-1.453125-.152344-3.78125-.796875-6.203125-4.511718-5.40625-8.292968l28.230469-134.035157c.796874-3.78125 4.507812-6.203125 8.292968-5.40625 3.78125.796875 6.203125 4.507813 5.40625 8.292969l-28.230468 134.035156c-.695313 3.296875-3.601563 5.558594-6.839844 5.558594zm0 0"
     id="path1662" />
  <path
     d="m377 374.085938h-330c-25.914062 0-47-21.082032-47-47v-280.085938c0-25.914062 21.085938-47 47-47h330c25.914062 0 47 21.085938 47 47v280.085938c0 25.917968-21.085938 47-47 47zm-330-360.085938c-18.195312 0-33 14.804688-33 33v280.085938c0 18.195312 14.804688 33 33 33h330c18.195312 0 33-14.804688 33-33v-280.085938c0-18.195312-14.804688-33-33-33zm0 0"
     id="path1664" />
  <path
     d="m417 112.089844h-410c-3.867188 0-7-3.132813-7-7 0-3.863282 3.132812-7 7-7h410c3.867188 0 7 3.136718 7 7 0 3.867187-3.132812 7-7 7zm0 0"
     id="path1666" />
  <path
     d="m119.601562 78.59375c-12.210937 0-22.152343-9.941406-22.152343-22.152344 0-12.214844 9.941406-22.152344 22.152343-22.152344 12.214844 0 22.152344 9.9375 22.152344 22.152344 0 12.210938-9.9375 22.152344-22.152344 22.152344zm0-30.304688c-4.492187 0-8.152343 3.65625-8.152343 8.152344s3.660156 8.152344 8.152343 8.152344c4.496094 0 8.152344-3.65625 8.152344-8.152344s-3.65625-8.152344-8.152344-8.152344zm0 0"
     id="path1668" />
  <path
     d="m51.539062 78.378906c-12.214843 0-22.152343-9.9375-22.152343-22.152344 0-12.214843 9.9375-22.152343 22.152343-22.152343 12.214844 0 22.152344 9.9375 22.152344 22.152343 0 12.214844-9.9375 22.152344-22.152344 22.152344zm0-30.304687c-4.492187 0-8.152343 3.660156-8.152343 8.152343 0 4.496094 3.660156 8.152344 8.152343 8.152344 4.496094 0 8.152344-3.65625 8.152344-8.152344 0-4.492187-3.65625-8.152343-8.152344-8.152343zm0 0"
     id="path1670" />
  <path
     d="m187.664062 78.804688c-12.210937 0-22.148437-9.9375-22.148437-22.152344 0-12.210938 9.9375-22.148438 22.148437-22.148438 12.214844 0 22.152344 9.9375 22.152344 22.148438 0 12.214844-9.9375 22.152344-22.152344 22.152344zm0-30.304688c-4.492187 0-8.148437 3.65625-8.148437 8.152344s3.65625 8.152344 8.148437 8.152344c4.496094 0 8.152344-3.65625 8.152344-8.152344s-3.65625-8.152344-8.152344-8.152344zm0 0"
     id="path1672" />
  <path
     style="fill:#ffffff;fill-opacity:0.97536944;stroke-width:0.84693015"
     d="M 46.906306,529.61871 C 23.166079,523.39842 4.4581288,502.18333 1.0396281,477.60522 -0.23755709,468.4226 -0.23239666,97.043013 1.0450437,87.858556 3.9076568,67.277131 16.396399,49.88285 35.01388,40.54687 49.857511,33.103336 26.066995,33.753894 283.4289,33.753894 h 227.82422 l 6.76414,1.957989 c 22.82245,6.606321 38.99741,22.766562 45.08766,45.046634 1.42164,5.20081 1.5048,16.363933 1.5048,201.992843 0,187.54287 -0.0703,196.73841 -1.54379,201.99284 -6.25697,22.31195 -23.42812,39.36058 -45.26969,44.94672 -6.23813,1.59544 -11.85872,1.63333 -235.56147,1.58781 -222.559973,-0.0453 -229.348497,-0.0932 -235.328464,-1.66002 z M 513.62182,512.27867 c 16.49616,-4.2967 28.83132,-17.21924 32.34618,-33.88644 1.07407,-5.09315 1.25231,-26.36495 1.26494,-150.9653 l 0.0147,-145.03679 H 282.55915 17.870648 l 0.258897,147.57758 c 0.238395,135.89079 0.372072,147.89928 1.688051,151.63995 5.499151,15.63135 16.814678,26.71836 31.224112,30.59354 6.992565,1.88054 455.369372,1.95562 462.580112,0.0775 z M 547.23294,128.8218 C 547.21667,89.219088 546.85644,85.536897 542.03867,75.726615 538.57212,68.667762 529.97196,60.023722 523.11014,56.701493 512.70499,51.663725 528.99315,51.983857 282.52396,51.972944 77.150263,51.963851 55.049765,52.091808 50.888562,53.314067 35.838014,57.734821 25.055206,68.407846 19.739249,84.146238 18.684664,87.268434 18.391322,94.885593 18.116608,126.28101 L 17.781272,164.6046 H 282.51446 547.24765 l -0.0147,-35.7828 z"
     id="path2225"
     inkscape:connector-curvature="0"
     transform="matrix(0.75000003,0,0,0.75000003,0,-25)" />
  <path
     style="fill:#ffffff;fill-opacity:0.97536944;stroke-width:0.84693015"
     d="m 150.75237,136.37257 c -8.45852,-3.15827 -13.34413,-7.43172 -17.48468,-15.29387 -2.00812,-3.81306 -2.27856,-5.2791 -2.28214,-12.37149 -0.003,-6.68694 0.32446,-8.712745 1.94113,-11.994519 5.9697,-12.118213 18.24202,-18.67513 31.16154,-16.649149 6.06007,0.950312 10.82671,3.347537 15.45131,7.770719 14.67072,14.031779 10.49522,38.220199 -8.15636,47.249269 -4.86554,2.35537 -15.92439,3.04634 -20.6308,1.28904 z m 16.8063,-20.34499 c 2.32724,-2.53946 2.80506,-3.72597 2.80506,-6.96552 0,-7.0913 -4.27364,-11.36494 -11.36494,-11.36494 -10.78869,0 -14.59115,14.58645 -5.32082,20.41092 2.05962,1.29405 3.71674,1.61664 6.89353,1.34197 3.49071,-0.3018 4.64587,-0.86762 6.98717,-3.42243 z"
     id="path2227"
     inkscape:connector-curvature="0"
     transform="matrix(0.75000003,0,0,0.75000003,0,-25)" />
  <path
     style="fill:#ffffff;fill-opacity:0.97536944;stroke-width:0.84693015"
     d="m 60.943071,136.37144 c -7.552065,-2.13519 -14.232344,-7.74565 -18.31715,-15.38374 -2.021649,-3.78024 -2.264668,-5.14348 -2.264668,-12.70395 0,-7.52581 0.249556,-8.941048 2.240155,-12.703955 2.975096,-5.62394 8.53243,-10.986353 14.263057,-13.762786 3.937624,-1.907741 5.796071,-2.261959 11.867644,-2.261959 6.071573,0 7.930021,0.354218 11.867644,2.261959 5.730627,2.776433 11.287961,8.138846 14.263057,13.762786 1.990599,3.762907 2.240155,5.178145 2.240155,12.703955 0,7.52581 -0.249556,8.94104 -2.240155,12.70395 -2.909984,5.50086 -8.503266,10.97196 -13.932647,13.62831 -5.324846,2.6052 -14.218679,3.38633 -19.987092,1.75543 z m 12.455811,-17.87357 c 8.288208,-3.46303 8.399544,-16.33057 0.175068,-20.233336 -3.65207,-1.733022 -5.725673,-1.775527 -9.508614,-0.194913 -8.217074,3.433309 -8.339688,16.847569 -0.186395,20.392039 3.530782,1.53493 5.911344,1.54398 9.519941,0.0362 z"
     id="path2229"
     inkscape:connector-curvature="0"
     transform="matrix(0.75000003,0,0,0.75000003,0,-25)" />
  <path
     style="fill:#ffffff;fill-opacity:0.97536944;stroke-width:0.84693015"
     d="m 245.122,137.45678 c -9.0273,-1.781 -16.12375,-7.0639 -20.61416,-15.34604 -2.69646,-4.97335 -2.90484,-5.90449 -2.90484,-12.98006 0,-6.44282 0.34002,-8.34322 2.19722,-12.28049 2.80197,-5.940206 8.37771,-11.515954 14.31792,-14.317924 3.93727,-1.857196 5.83767,-2.197214 12.28049,-2.197214 6.61461,0 8.25407,0.310219 12.40033,2.346393 22.05848,10.83262 21.73469,42.003505 -0.54331,52.304645 -5.71107,2.64075 -11.81228,3.52055 -17.13365,2.47069 z m 10.79863,-19.01864 c 4.00335,-2.07021 6.30292,-7.81904 5.0062,-12.51534 -2.68215,-9.713948 -16.92984,-11.00692 -20.74233,-1.88236 -2.25708,5.40197 -1.002,10.33865 3.53598,13.90822 2.71409,2.13491 8.56435,2.36962 12.20015,0.48948 z"
     id="path2231"
     inkscape:connector-curvature="0"
     transform="matrix(0.75000003,0,0,0.75000003,0,-25)" />
  <path
     style="fill:#ffffff;fill-opacity:0.97536944;stroke-width:0.84693015"
     d="m 254.9916,431.45275 c -1.75141,-1.7514 -2.47279,-3.29994 -2.46587,-5.29332 0.0145,-4.18635 37.75006,-182.24963 39.07094,-184.3647 0.62302,-0.99761 2.38944,-2.41017 3.92539,-3.13902 5.27797,-2.50457 12.04435,1.7655 12.04435,7.60084 0,1.96377 -34.68372,169.01275 -37.70568,181.60378 -1.46985,6.12419 -10.22267,8.23889 -14.86913,3.59242 z"
     id="path2233"
     inkscape:connector-curvature="0"
     transform="matrix(0.75000003,0,0,0.75000003,0,-25)" />
  <path
     style="fill:#ffffff;fill-opacity:0.97536944;stroke-width:0.84693015"
     d="m 337.47267,394.16357 c -3.27107,-1.99452 -4.82317,-6.47873 -3.5282,-10.19348 0.58783,-1.68625 9.31864,-9.65548 27.93945,-25.50231 21.56958,-18.35631 26.85904,-23.25326 25.97745,-24.04979 -0.60884,-0.55011 -12.68026,-10.8402 -26.82537,-22.86686 -17.1435,-14.57601 -26.08335,-22.74017 -26.81302,-24.48651 -2.35518,-5.63673 1.78092,-11.74315 7.95405,-11.74315 4.01386,0 0.31512,-2.84089 37.54502,28.83718 19.1986,16.33565 30.50609,26.53568 31.15591,28.10449 1.77735,4.29091 0.41644,7.14862 -6.18926,12.99652 -13.12468,11.61904 -56.99728,48.64197 -58.74302,49.57168 -2.67448,1.42433 -5.3933,1.21006 -8.47301,-0.66777 z"
     id="path2235"
     inkscape:connector-curvature="0"
     transform="matrix(0.75000003,0,0,0.75000003,0,-25)" />
  <path
     style="fill:#ffffff;fill-opacity:0.97536944;stroke-width:0.84693015"
     d="m 218.61546,394.37426 c -1.15172,-0.79325 -15.88086,-13.18212 -32.73142,-27.53082 -33.0516,-28.14433 -33.75219,-28.91233 -31.43765,-34.46304 1.25512,-3.01002 61.12372,-54.54204 65.62714,-56.4887 5.97488,-2.58272 13.10702,3.38426 11.70033,9.78888 -0.65936,3.00206 -3.47777,5.63538 -32.04123,29.93712 -12.48652,10.6235 -22.58288,19.6513 -22.43637,20.06179 0.1465,0.41048 12.08653,10.80692 26.53339,23.10319 24.25669,20.64578 28.35998,24.72926 28.35998,28.223 0,2.40994 -2.57466,6.24408 -5.05386,7.52612 -3.23982,1.67538 -5.93134,1.62562 -8.52031,-0.15754 z"
     id="path2237"
     inkscape:connector-curvature="0"
     transform="matrix(0.75000003,0,0,0.75000003,0,-25)" />
</svg>
