<?xml version="1.0" encoding="UTF-8" standalone="no"?>
<svg
   xmlns:dc="http://purl.org/dc/elements/1.1/"
   xmlns:cc="http://creativecommons.org/ns#"
   xmlns:rdf="http://www.w3.org/1999/02/22-rdf-syntax-ns#"
   xmlns:svg="http://www.w3.org/2000/svg"
   xmlns="http://www.w3.org/2000/svg"
   xmlns:sodipodi="http://sodipodi.sourceforge.net/DTD/sodipodi-0.dtd"
   xmlns:inkscape="http://www.inkscape.org/namespaces/inkscape"
   id="Bold"
   enable-background="new 0 0 24 24"

   viewBox="0 0 24 24"

   version="1.1"
   sodipodi:docname="discord.svg"
   inkscape:version="0.92.4 (5da689c313, 2019-01-14)">
  <metadata
     id="metadata2369">
    <rdf:RDF>
      <cc:Work
         rdf:about="">
        <dc:format>image/svg+xml</dc:format>
        <dc:type
           rdf:resource="http://purl.org/dc/dcmitype/StillImage" />
      </cc:Work>
    </rdf:RDF>
  </metadata>
  <defs
     id="defs2367" />
  <sodipodi:namedview
     pagecolor="#ffffff"
     bordercolor="#666666"
     borderopacity="1"
     objecttolerance="10"
     gridtolerance="10"
     guidetolerance="10"
     inkscape:pageopacity="0"
     inkscape:pageshadow="2"
     inkscape:window-width="1920"
     inkscape:window-height="986"
     id="namedview2365"
     showgrid="false"
     inkscape:zoom="0.4609375"
     inkscape:cx="256"
     inkscape:cy="256"
     inkscape:window-x="-11"
     inkscape:window-y="-11"
     inkscape:window-maximized="1"
     inkscape:current-layer="Bold" />
  <path
     d="m3.58 21.196h14.259l-.681-2.205 1.629 1.398 1.493 1.338 2.72 2.273v-21.525c-.068-1.338-1.22-2.475-2.648-2.475l-16.767.003c-1.427 0-2.585 1.139-2.585 2.477v16.24c0 1.411 1.156 2.476 2.58 2.476zm10.548-15.513-.033.012.012-.012zm-7.631 1.269c1.833-1.334 3.532-1.27 3.532-1.27l.137.135c-2.243.535-3.26 1.537-3.26 1.537s.272-.133.747-.336c3.021-1.188 6.32-1.102 9.374.402 0 0-1.019-.937-3.124-1.537l.186-.183c.291.001 1.831.055 3.479 1.26 0 0 1.844 3.15 1.844 7.02-.061-.074-1.144 1.666-3.931 1.726 0 0-.472-.534-.808-1 1.63-.468 2.24-1.404 2.24-1.404-.535.337-1.023.537-1.419.737-.609.268-1.219.4-1.828.535-2.884.468-4.503-.315-6.033-.936l-.523-.266s.609.936 2.174 1.404c-.411.469-.818 1.002-.818 1.002-2.786-.066-3.802-1.806-3.802-1.806 0-3.876 1.833-7.02 1.833-7.02z"
     id="path2358" />
  <path
     d="m14.308 12.771c.711 0 1.29-.6 1.29-1.34 0-.735-.576-1.335-1.29-1.335v.003c-.708 0-1.288.598-1.29 1.338 0 .734.579 1.334 1.29 1.334z"
     id="path2360" />
  <path
     d="m9.69 12.771c.711 0 1.29-.6 1.29-1.34 0-.735-.575-1.335-1.286-1.335l-.004.003c-.711 0-1.29.598-1.29 1.338 0 .734.579 1.334 1.29 1.334z"
     id="path2362" />
  <path
     style="fill:#ccff00;fill-opacity:0.97536945;stroke-width:2.16949153"
     d="m 467.30847,491.06608 c -11.33559,-9.4612 -31.34915,-26.62817 -44.47457,-38.1488 -49.51528,-43.46131 -55.57415,-48.5612 -56.54229,-47.59307 -0.54662,0.54661 1.94502,10.54117 5.53694,22.21011 3.59191,11.66896 6.53077,21.60275 6.53077,22.0751 0,0.47236 -72.07715,0.59635 -160.17142,0.27554 L 58.016486,449.30169 47.397799,442.73586 c -6.579612,-4.06834 -13.11616,-10.605 -17.184515,-17.18478 L 23.647458,414.93213 23.023573,231.43895 C 22.568514,97.599777 23.078235,45.475276 24.907214,38.816241 28.318957,26.3946 40.662367,12.615432 53.899698,6.4514187 L 64.867797,1.344082 253.61356,1.3349918 c 123.39543,-0.00594 191.54363,0.7679384 196.82655,2.2351436 12.62106,3.5051783 25.87943,14.9698366 32.60935,28.1976356 l 6.02333,11.839009 -0.57708,232.33074 -0.57707,232.33074 z M 190.15593,326.83394 c 4.47458,-5.80478 8.1356,-11.05696 8.1356,-11.67154 0,-0.61459 -3.42117,-2.24651 -7.60259,-3.6265 -7.54401,-2.48975 -34.49389,-19.36937 -33.11943,-20.74383 0.39417,-0.39417 9.13826,2.66477 19.43131,6.79765 32.2897,12.96499 49.44718,16.49783 79.86698,16.44518 30.49179,-0.0527 59.38091,-6.01171 80.13752,-16.52988 6.2769,-3.18076 11.90281,-5.29293 12.502,-4.69374 1.67302,1.67303 -18.93688,14.06998 -28.09715,16.90056 -4.47458,1.38268 -8.13559,3.41545 -8.13559,4.51729 0,1.10184 3.53455,6.3168 7.85455,11.5888 9.02314,11.01153 13.82535,11.82663 37.20396,6.31465 18.27684,-4.30913 33.5598,-12.36517 46.60313,-24.56568 l 10.81429,-10.11551 -1.4925,-18.44773 c -3.09214,-38.22015 -13.52435,-77.83048 -29.75842,-112.99037 -7.79457,-16.8816 -9.67107,-19.26394 -20.19994,-25.6451 -15.92157,-9.64947 -40.25101,-17.75811 -54.75823,-18.25009 -14.84769,-0.50352 -17.2225,3.25329 -4.46273,7.05972 13.34867,3.98211 37.31257,15.12019 35.79551,16.63725 -0.70871,0.7087 -7.45262,-0.73889 -14.98646,-3.21687 -43.978,-14.46492 -97.19747,-14.53668 -143.63478,-0.19364 -8.11449,2.50631 -15.28792,4.02263 -15.94095,3.36961 -1.58135,-1.58136 24.99641,-13.4131 39.79137,-17.71411 15.27054,-4.43927 13.33152,-8.45871 -3.23019,-6.69593 -15.37713,1.6367 -34.4977,8.12533 -51.22573,17.38362 -11.46247,6.34401 -13.8444,8.86573 -19.9459,21.11644 -16.58569,33.30112 -29.76603,81.8281 -32.319915,118.99453 l -1.425703,20.74806 10.828858,10.12257 c 17.15806,16.03892 44.01424,27.31875 65.64232,27.57037 6.56651,0.0764 8.69326,-1.33873 15.72881,-10.46578 z"
     id="path6618"
     inkscape:connector-curvature="0"
     transform="scale(0.046875)" />
  <path
     style="fill:#ccff00;fill-opacity:0.97536944;stroke-width:2.16949153"
     d="m 287.75119,262.89213 c -7.23303,-6.62858 -8.10373,-8.56191 -8.10373,-17.99372 0,-13.02043 5.14155,-21.50561 15.70589,-25.91968 10.9226,-4.56375 20.50396,-2.21621 28.60296,7.00804 5.57368,6.34808 6.6742,9.41348 6.6742,18.59041 0,9.60455 -0.92926,11.91818 -7.37627,18.36519 -6.25746,6.25746 -8.8948,7.37627 -17.38779,7.37627 -8.37439,0 -11.33669,-1.21442 -18.11526,-7.42651 z"
     id="path6620"
     inkscape:connector-curvature="0"
     transform="scale(0.046875)" />
  <path
     style="fill:#ccff00;fill-opacity:0.97536944;stroke-width:2.16949153"
     d="m 192.25339,266.93271 c -6.92457,-4.85016 -11.3178,-14.52593 -11.3178,-24.92667 0,-7.31451 1.35919,-10.36184 7.24839,-16.25104 12.15599,-12.15599 24.90663,-12.56426 36.30833,-1.16256 11.2121,11.2121 11.03694,27.68014 -0.41624,39.13332 -5.47409,5.47409 -8.32343,6.59288 -16.79074,6.59288 -5.72979,0 -12.31584,-1.4835 -15.03194,-3.38593 z"
     id="path6622"
     inkscape:connector-curvature="0"
     transform="scale(0.046875)" />
</svg>
