<?xml version="1.0" encoding="UTF-8" standalone="no"?>
<svg
   xmlns:dc="http://purl.org/dc/elements/1.1/"
   xmlns:cc="http://creativecommons.org/ns#"
   xmlns:rdf="http://www.w3.org/1999/02/22-rdf-syntax-ns#"
   xmlns:svg="http://www.w3.org/2000/svg"
   xmlns="http://www.w3.org/2000/svg"
   xmlns:sodipodi="http://sodipodi.sourceforge.net/DTD/sodipodi-0.dtd"
   xmlns:inkscape="http://www.inkscape.org/namespaces/inkscape"
   id="Layer_5"
   enable-background="new 0 0 64 64"

   viewBox="0 0 64 64"

   version="1.1"
   sodipodi:docname="mobile-app (1).svg"
   inkscape:version="0.92.4 (5da689c313, 2019-01-14)">
  <metadata
     id="metadata1061">
    <rdf:RDF>
      <cc:Work
         rdf:about="">
        <dc:format>image/svg+xml</dc:format>
        <dc:type
           rdf:resource="http://purl.org/dc/dcmitype/StillImage" />
      </cc:Work>
    </rdf:RDF>
  </metadata>
  <defs
     id="defs1059" />
  <sodipodi:namedview
     pagecolor="#ffffff"
     bordercolor="#666666"
     borderopacity="1"
     objecttolerance="10"
     gridtolerance="10"
     guidetolerance="10"
     inkscape:pageopacity="0"
     inkscape:pageshadow="2"
     inkscape:window-width="1920"
     inkscape:window-height="986"
     id="namedview1057"
     showgrid="false"
     inkscape:zoom="1.84375"
     inkscape:cx="256"
     inkscape:cy="48.336611"
     inkscape:window-x="-11"
     inkscape:window-y="-11"
     inkscape:window-maximized="1"
     inkscape:current-layer="Layer_5" />
  <path
     d="m63 33c0-6.689-4.718-12.29-11-13.668v-13.332c0-2.757-2.243-5-5-5h-26c-2.757 0-5 2.243-5 5v11h-5.781l-.603 2.416-2.134-1.281-5.348 5.345 1.281 2.136-2.415.603v7.562l2.416.603-1.282 2.136 5.347 5.346 2.134-1.281.604 2.415h5.781v15c0 2.757 2.243 5 5 5h26c2.757 0 5-2.243 5-5v-11.332c6.282-1.378 11-6.979 11-13.668zm-2 0c0 1.949-.477 3.785-1.305 5.414-.555-1.527-1.832-2.728-3.482-3.141l-4.213-1.054v-.239c1.246-.939 2-2.416 2-3.979v-2c0-1.397-.591-2.741-1.622-3.687-1.03-.943-2.426-1.417-3.822-1.294-2.555.221-4.556 2.501-4.556 5.187v1.793c0 1.563.754 3.04 2 3.979v.239l-4.213 1.054c-1.65.413-2.927 1.614-3.482 3.141-.828-1.628-1.305-3.464-1.305-5.413 0-6.617 5.383-12 12-12s12 5.383 12 12zm-15-13.668c-.688.151-1.354.359-2 .607v-2.939h-20v14h11.16c-.095.655-.16 1.319-.16 2 0 6.689 4.718 12.29 11 13.668v2.332h-24v-34h24zm-10.41 9.668h-9.59v-10h16v1.894c-3.054 1.773-5.38 4.659-6.41 8.106zm-14.59-26h26c1.654 0 3 1.346 3 3v3h-32v-3c0-1.654 1.346-3 3-3zm-5 31.572c-.631.278-1.312.428-2 .428-2.757 0-5-2.243-5-5s2.243-5 5-5c.688 0 1.369.15 2 .428zm-4.219 6.428-.487-1.949-.203-.535-1.142-.464-2.158 1.296-3.138-3.139 1.296-2.159-.5-1.22-2.449-.611v-4.438l2.446-.611.503-1.22-1.296-2.159 3.138-3.139 2.158 1.296 1.22-.496.612-2.452h4.219v4.305c-.649-.195-1.321-.305-2-.305-3.86 0-7 3.141-7 7s3.14 7 7 7c.679 0 1.351-.11 2-.305v4.305zm35.219 20h-26c-1.654 0-3-1.346-3-3v-3h32v3c0 1.654-1.346 3-3 3zm3-8h-32v-42h32v8.051c-.332-.024-.662-.051-1-.051s-.668.027-1 .051v-6.051h-28v38h28v-4.051c.332.024.662.051 1 .051s.668-.027 1-.051zm-1-8c-3.585 0-6.799-1.589-9-4.089v-.788c0-1.379.935-2.576 2.272-2.911l5.728-1.431v-2.911l-.497-.289c-.941-.548-1.503-1.513-1.503-2.581v-1.793c0-1.659 1.199-3.062 2.729-3.195.858-.069 1.671.201 2.298.776.618.567.973 1.373.973 2.212v2c0 1.068-.562 2.033-1.503 2.581l-.497.289v2.911l5.728 1.431c1.337.335 2.272 1.532 2.272 2.911v.788c-2.201 2.5-5.415 4.089-9 4.089z"
     id="path1028" />
  <path
     d="m38 5h2v2h-2z"
     id="path1030" />
  <path
     d="m28 5h8v2h-8z"
     id="path1032" />
  <path
     d="m30 57h8v2h-8z"
     id="path1034" />
  <path
     d="m44 57h2v2h-2z"
     id="path1036" />
  <path
     d="m22 57h2v2h-2z"
     id="path1038" />
  <path
     d="m24 33h9v2h-9z"
     id="path1040" />
  <path
     d="m24 37h9v2h-9z"
     id="path1042" />
  <path
     d="m24 41h9v2h-9z"
     id="path1044" />
  <path
     d="m24 45h9v2h-9z"
     id="path1046" />
  <path
     d="m57 19c1.654 0 3-1.346 3-3 0-1.302-.839-2.402-2-2.816v-8.184h-2v8.184c-1.161.414-2 1.514-2 2.816 0 1.654 1.346 3 3 3zm0-4c.551 0 1 .448 1 1s-.449 1-1 1-1-.448-1-1 .449-1 1-1z"
     id="path1048" />
  <path
     d="m56 1h2v2h-2z"
     id="path1050" />
  <path
     d="m11 45c-1.654 0-3 1.346-3 3 0 1.302.839 2.402 2 2.816v8.184h2v-8.184c1.161-.414 2-1.514 2-2.816 0-1.654-1.346-3-3-3zm0 4c-.551 0-1-.448-1-1s.449-1 1-1 1 .448 1 1-.449 1-1 1z"
     id="path1052" />
  <path
     d="m10 61h2v2h-2z"
     id="path1054" />
  <path
     style="fill:#ffffff;fill-opacity:0.97536944;stroke-width:0.76703107"
     d="m 157.88733,502.29239 c -10.09671,-2.77551 -20.45582,-11.1484 -25.03076,-20.23145 -4.62743,-9.18727 -4.61601,-8.9981 -4.63063,-76.60493 l -0.0133,-61.55425 H 105.23125 82.249885 l -0.757958,-2.87636 c -0.416877,-1.58201 -1.508054,-5.89656 -2.424838,-9.58789 -0.916785,-3.69134 -1.953609,-6.71152 -2.304055,-6.71152 -0.350447,0 -4.065376,2.07098 -8.255399,4.60218 -4.190023,2.5312 -7.918944,4.60219 -8.28649,4.60219 -0.367547,0 -10.094643,-9.43106 -21.615771,-20.9579 l -20.947505,-20.9579 5.021081,-8.35937 c 3.487316,-5.80587 4.733019,-8.5094 4.078052,-8.85052 -0.518667,-0.27012 -4.826126,-1.44117 -9.57213,-2.60233 l -8.6291001,-2.11118 v -30.0519 -30.0519 l 9.0126151,-2.16898 c 4.956939,-1.19294 9.248202,-2.38583 9.536141,-2.65087 0.287939,-0.26504 -1.742891,-4.23022 -4.512956,-8.81152 l -5.036479,-8.32963 20.998893,-21.00931 c 11.549391,-11.55512 21.244065,-21.00931 21.543721,-21.00931 0.299655,0 3.973028,2.07099 8.163051,4.60219 4.190023,2.5312 7.9605,4.60219 8.378837,4.60219 0.418337,0 1.510709,-3.02019 2.427494,-6.71153 0.916784,-3.69133 2.007961,-8.00588 2.424838,-9.58789 l 0.757958,-2.87636 h 22.981365 22.98137 l 0.0134,-45.446594 c 0.0147,-49.953095 0.13885,-51.58826 4.58829,-60.402544 4.59901,-9.110672 13.87078,-16.946455 23.61223,-19.955282 4.82132,-1.4891543 7.37123,-1.5227419 115.60446,-1.5227419 108.23322,0 110.78314,0.033588 115.60446,1.5227419 13.80239,4.263122 25.17078,17.309946 27.41243,31.459595 0.48676,3.072587 0.79207,25.750237 0.79565,59.099455 l 0.006,54.11375 7.46985,2.09955 c 7.63478,2.14591 20.56216,7.89871 27.43007,12.20662 25.80438,16.1859 44.0636,42.35626 50.73442,72.71607 1.1562,5.26207 1.41225,9.57782 1.36279,22.9706 -0.0586,15.86822 -0.15005,16.8287 -2.42068,25.42664 -10.87468,41.17787 -40.66263,71.1981 -81.28002,81.91381 l -3.22333,0.85038 -0.23028,49.26202 -0.23029,49.26203 -1.99231,5.12278 c -5.12736,13.18386 -14.85491,22.19319 -27.63523,25.59479 -5.88758,1.56703 -222.23944,1.53132 -227.94694,-0.0377 z M 386.5449,485.96105 c 5.08613,-2.7157 9.1087,-6.77597 11.43305,-11.54023 2.05741,-4.2171 2.12651,-4.77973 2.394,-19.49131 l 0.27543,-15.14886 H 272.03095 143.41452 l 0.27268,15.14886 c 0.24101,13.38947 0.45891,15.55427 1.87622,18.63948 2.89562,6.3032 8.15615,11.10328 14.77421,13.48103 2.236,0.80335 24.1512,0.96523 112.84387,0.83352 l 110.06896,-0.16345 z m 13.96376,-86.06602 v -24.54499 h -8.43735 -8.43734 v 16.10765 16.10765 H 272.03095 160.42793 V 256.0767 104.58806 h 111.60302 111.60302 v 23.96973 23.96972 h 8.43734 8.43735 V 120.12044 87.71338 H 272.03095 143.55324 V 256.0767 424.44003 h 128.47771 128.47771 z m -32.21531,-17.22864 v -9.55832 l -3.25988,-0.82287 c -19.76894,-4.99016 -40.30745,-17.10491 -54.24956,-31.9994 -22.6946,-24.24485 -33.96068,-58.44017 -29.44953,-89.38656 l 0.4193,-2.87636 h -44.55522 -44.55523 v -55.99327 -55.99327 h 79.38772 79.38772 v 11.97104 c 0,11.09128 0.0986,11.93215 1.3423,11.44175 0.73827,-0.29111 4.53507,-1.43269 8.43734,-2.53684 l 7.09504,-2.00757 V 137.4167 119.92869 h -96.2624 -96.2624 V 256.0767 392.22472 h 96.2624 96.2624 z m 40.35706,-23.8443 c 18.55969,-3.23654 37.05216,-12.79577 50.82553,-26.27299 l 4.6963,-4.59534 v -5.80379 c 0,-10.76526 -4.51776,-18.47531 -13.26348,-22.63564 -2.88778,-1.37372 -13.74218,-4.47531 -27.58093,-7.88112 l -22.81917,-5.61596 0.0152,-11.51863 0.0152,-11.51864 3.89759,-2.30109 c 4.44344,-2.62336 7.61592,-6.28329 10.08644,-11.63625 1.56202,-3.38431 1.70973,-4.86412 1.70973,-17.12742 0,-12.91588 -0.0767,-13.58672 -2.03106,-17.7552 -2.48023,-5.29019 -6.74701,-9.68873 -11.80786,-12.17249 -3.11622,-1.52937 -4.97989,-1.86779 -10.32256,-1.87445 -5.58558,-0.007 -7.06928,0.28307 -10.35492,2.02418 -5.11931,2.7128 -9.047,6.93115 -11.65713,12.51976 -2.09734,4.49067 -2.14942,4.92745 -2.14942,18.02524 0,12.09327 0.16241,13.77429 1.63939,16.96856 2.17364,4.70095 6.35786,9.22743 10.61958,11.48827 l 3.46516,1.83826 v 11.51995 11.51995 l -22.81917,5.63483 c -12.55055,3.09916 -24.56074,6.4072 -26.68933,7.35119 -5.47878,2.42975 -9.11724,5.91474 -11.81806,11.31956 -2.07008,4.14258 -2.33702,5.44308 -2.33702,11.38572 v 6.70895 l 5.56098,5.1617 c 14.14148,13.12611 31.50893,21.96295 49.60523,25.23994 8.05981,1.45953 25.15257,1.46103 33.51381,0.003 z M 128.21262,310.91943 c 0,-9.70295 -0.0864,-17.64172 -0.19204,-17.64172 -0.10563,0 -2.60807,0.51176 -5.56098,1.13723 -28.212158,5.9758 -57.631702,-12.91603 -64.513607,-41.42755 -1.687025,-6.9893 -1.687025,-19.04738 0,-26.03668 7.255591,-30.0597 38.692607,-48.67185 68.540807,-40.57931 l 1.72582,0.46791 V 169.10813 151.37696 H 111.11245 94.012262 l -2.174318,9.01262 c -1.195878,4.95693 -2.429425,9.4922 -2.741224,10.07837 -0.311798,0.58616 -2.556399,1.87517 -4.987995,2.86445 l -4.421093,1.7987 -8.255084,-4.97379 c -4.540297,-2.73559 -8.55444,-4.97379 -8.920319,-4.97379 -0.365878,0 -6.314958,5.65752 -13.220178,12.57227 l -12.554944,12.57226 5.177678,8.59349 5.177679,8.59348 -1.845848,4.72155 -1.845847,4.72155 -7.642853,1.98313 c -4.203568,1.09072 -8.59828,2.22064 -9.766026,2.51094 l -2.123175,0.5278 0.205597,18.15687 0.205597,18.15687 9.570891,2.38134 9.570892,2.38133 1.835386,4.68334 1.835386,4.68334 -5.177679,8.59349 -5.177678,8.59348 12.554944,12.57226 c 6.90522,6.91475 12.8543,12.57227 13.220178,12.57227 0.365879,0 4.371555,-2.2331 8.901503,-4.96245 l 8.236269,-4.96246 4.331098,1.70258 c 5.007838,1.9686 5.384903,2.63517 8.230826,14.55034 l 1.786239,7.47855 H 111.1054 128.21262 Z M 482.6786,296.19419 c 6.81063,-18.63351 7.22071,-42.62566 1.0516,-61.52423 -9.50733,-29.1249 -32.33644,-52.31661 -60.82201,-61.78805 -11.50043,-3.82389 -17.9032,-4.85174 -30.45336,-4.88874 -17.3486,-0.0512 -29.86334,2.94899 -45.18934,10.83319 -38.74766,19.93306 -59.44932,65.82777 -48.74993,108.07654 1.71728,6.78105 6.80761,20.18137 7.66622,20.18137 0.3114,0 1.55654,-1.97938 2.76697,-4.39863 3.08923,-6.17433 10.9706,-13.95085 17.15789,-16.92964 2.88607,-1.38946 11.60761,-4.04209 20.70984,-6.29883 22.44375,-5.56456 21.47687,-5.26502 21.47687,-6.65353 0,-0.68154 -1.32338,-2.37192 -2.94085,-3.75642 -4.10112,-3.51041 -8.32796,-9.9068 -10.65978,-16.13126 -1.7435,-4.65401 -2.01606,-6.72465 -2.31006,-17.5491 -0.54038,-19.89513 2.36019,-29.0395 12.43076,-39.18936 23.36594,-23.54987 62.39698,-9.54949 66.48689,23.84874 1.31417,10.7316 0.44553,25.78348 -1.87265,32.4494 -2.0624,5.93044 -7.72244,14.51718 -11.32464,17.1804 -1.23956,0.91645 -2.25374,2.27838 -2.25374,3.02651 0,1.52836 -1.31571,1.11171 21.47687,6.801 9.39615,2.34539 17.73057,4.90737 20.70984,6.36615 6.44946,3.15793 13.39468,10.06965 16.88129,16.79983 l 2.66962,5.15316 1.46681,-2.85206 c 0.80675,-1.56863 2.43795,-5.50903 3.62489,-8.75644 z m -358.49289,-17.83497 4.02691,-1.24859 V 239.96076 202.8109 l -4.41043,-1.3635 c -6.53974,-2.02178 -18.24593,-1.83976 -24.73675,0.38463 -18.126206,6.2118 -29.675768,25.01705 -26.906912,43.81043 2.381829,16.16645 14.362932,29.41343 30.358552,33.56611 4.87367,1.26527 16.29212,0.8177 21.66863,-0.84935 z m 162.77726,-51.86664 c 5.19458,-14.24883 14.19625,-28.61928 24.88647,-39.72924 5.49333,-5.70901 14.98129,-13.51921 20.96872,-17.26084 l 3.25989,-2.03713 v -8.0442 -8.04421 h -64.0471 -64.0471 v 40.65974 40.65975 l 38.43121,-0.19886 38.43121,-0.19885 z M 400.38626,57.223894 c -0.25489,-14.787316 -0.31238,-15.253257 -2.40908,-19.522945 -2.69525,-5.488548 -8.4736,-10.784017 -13.79076,-12.638298 -3.79925,-1.324934 -9.5367,-1.396367 -112.15547,-1.396367 -122.94434,0 -112.52164,-0.568976 -120.33164,6.568923 -6.87148,6.280143 -7.67039,8.97394 -8.00414,26.988687 l -0.28065,15.148864 h 128.61643 128.61643 z"
     id="path1606"
     inkscape:connector-curvature="0"
     transform="scale(0.125)" />
  <path
     style="fill:#ffffff;fill-opacity:0.97536944;stroke-width:0.76703107"
     d="m 80.656694,439.16123 v -32.83472 l -3.030738,-1.33716 c -4.511783,-1.9906 -9.714974,-7.67823 -11.605884,-12.68645 -1.269876,-3.36337 -1.548591,-5.4633 -1.282932,-9.66607 1.003662,-15.87812 15.998179,-25.77906 31.32931,-20.68687 5.49549,1.8253 12.1642,8.37121 13.98602,13.72847 3.7474,11.0196 -0.41248,22.69986 -10.127121,28.43527 l -3.897591,2.3011 -0.01522,32.79057 -0.01522,32.79058 h -7.670311 -7.670311 z m 11.520819,-48.09499 c 2.816065,-1.45625 3.819803,-3.31083 3.819803,-7.05777 0,-3.66172 -1.705687,-6.18684 -5.151724,-7.62669 -5.186496,-2.16705 -10.983668,1.71441 -10.928749,7.31728 0.06707,6.84258 6.176336,10.51351 12.26067,7.36718 z"
     id="path1608"
     inkscape:connector-curvature="0"
     transform="scale(0.125)" />
  <path
     style="fill:#ffffff;fill-opacity:0.97536944;stroke-width:0.76703107"
     d="m 80.656694,495.77392 v -7.67031 h 7.670311 7.670311 v 7.67031 7.67031 h -7.670311 -7.670311 z"
     id="path1610"
     inkscape:connector-curvature="0"
     transform="scale(0.125)" />
  <path
     style="fill:#ffffff;fill-opacity:0.97536944;stroke-width:0.54237288"
     d="m 224.21695,48.093192 v -7.864407 h 31.72881 31.72882 v 7.864407 7.864407 h -31.72882 -31.72881 z"
     id="path1612"
     inkscape:connector-curvature="0"
     transform="scale(0.125)" />
  <path
     style="fill:#ffffff;fill-opacity:0.97536944;stroke-width:0.54237288"
     d="m 304.48814,48.093192 v -7.864407 h 7.59322 7.59322 v 7.864407 7.864407 h -7.59322 -7.59322 z"
     id="path1614"
     inkscape:connector-curvature="0"
     transform="scale(0.125)" />
  <path
     style="fill:#ffffff;fill-opacity:0.97536944;stroke-width:0.54237288"
     d="m 452.01356,151.34703 c -7.17023,-1.16278 -14.08722,-6.45055 -17.45997,-13.34747 -1.71406,-3.50506 -1.79427,-3.9479 -1.79427,-9.90637 0,-5.90911 0.0925,-6.43268 1.75887,-9.95099 2.12324,-4.48303 6.77284,-9.25564 10.87107,-11.15867 l 2.82769,-1.31305 V 72.949633 40.228785 h 7.86441 7.8644 V 72.976544 105.7243 l 1.69508,0.70213 c 5.56457,2.30492 10.77104,8.15075 12.90741,14.49248 4.47906,13.2959 -4.76485,28.16064 -18.94147,30.45895 -1.93898,0.31435 -3.76949,0.54485 -4.0678,0.51224 -0.2983,-0.0326 -1.88474,-0.277 -3.52542,-0.54307 z m 8.58277,-16.59073 c 4.8875,-3.64286 4.50921,-11.46815 -0.67329,-13.9274 -4.38014,-2.07851 -9.32443,-0.48051 -11.18334,3.61448 -1.32841,2.92636 -1.3253,4.397 0.0152,7.16603 2.10597,4.35035 8.09237,5.94125 11.84147,3.14689 z"
     id="path1616"
     inkscape:connector-curvature="0"
     transform="scale(0.125)" />
  <path
     style="fill:#ffffff;fill-opacity:0.97536944;stroke-width:0.54237288"
     d="M 448.21695,16.093192 V 8.2287853 h 7.86441 7.8644 v 7.8644067 7.864407 h -7.8644 -7.86441 z"
     id="path1618"
     inkscape:connector-curvature="0"
     transform="scale(0.125)" />
  <path
     style="fill:#ffffff;fill-opacity:0.97536944;stroke-width:0.54237288"
     d="m 192.21695,272.09319 v -7.8644 h 35.79661 35.79661 v 7.8644 7.86441 h -35.79661 -35.79661 z"
     id="path1620"
     inkscape:connector-curvature="0"
     transform="scale(0.125)" />
  <path
     style="fill:#ffffff;fill-opacity:0.97536944;stroke-width:0.54237288"
     d="m 192.21695,303.98881 v -7.59322 h 35.79661 35.79661 v 7.59322 7.59322 h -35.79661 -35.79661 z"
     id="path1622"
     inkscape:connector-curvature="0"
     transform="scale(0.125)" />
  <path
     style="fill:#ffffff;fill-opacity:0.97536944;stroke-width:0.54237288"
     d="m 192.21695,335.98881 v -7.59322 h 35.79661 35.79661 v 7.59322 7.59322 h -35.79661 -35.79661 z"
     id="path1624"
     inkscape:connector-curvature="0"
     transform="scale(0.125)" />
  <path
     style="fill:#ffffff;fill-opacity:0.97536944;stroke-width:0.54237288"
     d="m 192.21695,367.98881 v -7.59322 h 35.79661 35.79661 v 7.59322 7.59322 h -35.79661 -35.79661 z"
     id="path1626"
     inkscape:connector-curvature="0"
     transform="scale(0.125)" />
  <path
     style="fill:#ffffff;fill-opacity:0.97536944;stroke-width:0.54237288"
     d="m 240.48814,463.98881 v -7.59322 h 31.72881 31.72881 v 7.59322 7.59322 h -31.72881 -31.72881 z"
     id="path1628"
     inkscape:connector-curvature="0"
     transform="scale(0.125)" />
  <path
     style="fill:#ffffff;fill-opacity:0.97536944;stroke-width:0.54237288"
     d="m 352.21695,463.98881 v -7.59322 h 7.86441 7.8644 v 7.59322 7.59322 h -7.8644 -7.86441 z"
     id="path1630"
     inkscape:connector-curvature="0"
     transform="scale(0.125)" />
  <path
     style="fill:#ffffff;fill-opacity:0.97536944;stroke-width:0.54237288"
     d="m 176.48814,463.98881 v -7.59322 h 7.59322 7.59322 v 7.59322 7.59322 h -7.59322 -7.59322 z"
     id="path1632"
     inkscape:connector-curvature="0"
     transform="scale(0.125)" />
</svg>
